# xmcd
#
# Track frame offsets:
#	150
#	14537
#	33040
#	50013
#	71543
#	87691
#	102777
#	121374
#	139205
#	153388
#	169315
#	188980
#
# Disc length: 2681 seconds
#
# Revision: 0
# Processed by: cddbd v1.5.2PL0 Copyright (c) Steve Scherf et al.
# Submitted via: audiograbber 1.83.01
#
DISCID=a60a770c
DTITLE=Warrant - Dirty Rotten Filthy Stinking Rich
DYEAR=1989
DGENRE=Hard Rock
TTITLE0=32 Pennies
TTITLE1=Down Boys
TTITLE2=Big Talk
TTITLE3=Sometimes She Cries
TTITLE4=So Damn Pretty (Should Be Against The Law)
TTITLE5=D.R.F.S.R.
TTITLE6=In The Sticks
TTITLE7=Heaven
TTITLE8=Ridin' High
TTITLE9=Cold Sweat
TTITLE10=Only A Man [Demo]
TTITLE11=All Night Long [Demo]
EXTD=
EXTT0=
EXTT1=
EXTT2=
EXTT3=
EXTT4=
EXTT5=
EXTT6=
EXTT7=
EXTT8=
EXTT9=
EXTT10=
EXTT11=
PLAYORDER=
